{
  "accessors": [
    {
      "bufferView": 2,
      "componentType": 5126,
      "count": 12705,
      "max": [
        1.9159476757049561,
        0.67354333400726318,
        0.25717887282371521
      ],
      "min": [
        -0.0085719600319862366,
        -0.60726088285446167,
        -0.32431811094284058
      ],
      "type": "VEC3"
    },
    {
      "bufferView": 2,
      "byteOffset": 152460,
      "componentType": 5126,
      "count": 12705,
      "max": [
        0.99975943565368652,
        0.99998980760574341,
        0.9998854398727417
      ],
      "min": [
        -0.99938458204269409,
        -0.99987995624542236,
        -0.99999243021011353
      ],
      "type": "VEC3"
    },
    {
      "bufferView": 3,
      "componentType": 5126,
      "count": 12705,
      "max": [
        0.99998015165328979,
        0.99915969371795654,
        0.99997580051422119,
        1
      ],
      "min": [
        -0.99999016523361206,
        -0.99928951263427734,
        -0.99988102912902832,
        1
      ],
      "type": "VEC4"
    },
    {
      "bufferView": 1,
      "componentType": 5126,
      "count": 12705,
      "max": [
        0.99263232946395874,
        0.9999619722366333
      ],
      "min": [
        7.6528638601303101e-05,
        2.193450927734375e-05
      ],
      "type": "VEC2"
    },
    {
      "bufferView": 0,
      "componentType": 5125,
      "count": 60000,
      "max": [
        12704
      ],
      "min": [
        0
      ],
      "type": "SCALAR"
    }
  ],
  "asset": {
    "extras": {
      "author": "Mingxuan Xie (https://sketchfab.com/vrchitecture)",
      "license": "CC-BY-4.0 (http://creativecommons.org/licenses/by/4.0/)",
      "source": "https://sketchfab.com/3d-models/hyperbody-path-outfit-1-bb6a5551ba5149bd8b0a5689def11497",
      "title": "Hyperbody PATH Outfit 1"
    },
    "generator": "Sketchfab-4.78.0",
    "version": "2.0"
  },
  "bufferViews": [
    {
      "buffer": 0,
      "byteLength": 240000,
      "byteOffset": 0,
      "name": "floatBufferViews",
      "target": 34963
    },
    {
      "buffer": 0,
      "byteLength": 101640,
      "byteOffset": 240000,
      "byteStride": 8,
      "name": "floatBufferViews",
      "target": 34962
    },
    {
      "buffer": 0,
      "byteLength": 304920,
      "byteOffset": 341640,
      "byteStride": 12,
      "name": "floatBufferViews",
      "target": 34962
    },
    {
      "buffer": 0,
      "byteLength": 203280,
      "byteOffset": 646560,
      "byteStride": 16,
      "name": "floatBufferViews",
      "target": 34962
    }
  ],
  "buffers": [
    {
      "byteLength": 849840,
      "uri": "scene.bin"
    }
  ],
  "images": [
    {
      "uri": "textures/material0_baseColor.png"
    }
  ],
  "materials": [
    {
      "doubleSided": true,
      "emissiveFactor": [
        0,
        0,
        0
      ],
      "name": "material0",
      "pbrMetallicRoughness": {
        "baseColorFactor": [
          1,
          1,
          1,
          1
        ],
        "baseColorTexture": {
          "index": 0,
          "texCoord": 0
        },
        "metallicFactor": 0,
        "roughnessFactor": 0.95770514949999996
      }
    }
  ],
  "meshes": [
    {
      "name": "Model_material0_0",
      "primitives": [
        {
          "attributes": {
            "NORMAL": 1,
            "POSITION": 0,
            "TANGENT": 2,
            "TEXCOORD_0": 3
          },
          "indices": 4,
          "material": 0,
          "mode": 4
        }
      ]
    }
  ],
  "nodes": [
    {
      "children": [
        1
      ],
      "name": "RootNode (gltf orientation matrix)",
      "rotation": [
        -0.70710678118654746,
        -0,
        -0,
        0.70710678118654757
      ]
    },
    {
      "children": [
        2
      ],
      "name": "RootNode (model correction matrix)"
    },
    {
      "children": [
        3
      ],
      "matrix": [
        1,
        0,
        0,
        0,
        0,
        0,
        1,
        0,
        0,
        -1,
        0,
        0,
        0,
        0,
        0,
        1
      ],
      "name": "PATH_outfit_1.fbx"
    },
    {
      "children": [
        4
      ],
      "name": "RootNode"
    },
    {
      "children": [
        5
      ],
      "matrix": [
        0.0057579901482153195,
        0.99856022154518365,
        -0.053332255690969776,
        0,
        0.89293033483569362,
        0.018874488091755182,
        0.44979903382454084,
        0,
        0.4501580418915887,
        -0.050211927337118933,
        -0.89153603386146019,
        0,
        -0.0032999669201672077,
        -0.009373803623020649,
        0.044941417872905731,
        1
      ],
      "name": "Model"
    },
    {
      "mesh": 0,
      "name": "Model_material0_0"
    }
  ],
  "samplers": [
    {
      "magFilter": 9729,
      "minFilter": 9987,
      "wrapS": 10497,
      "wrapT": 10497
    }
  ],
  "scene": 0,
  "scenes": [
    {
      "name": "OSG_Scene",
      "nodes": [
        0
      ]
    }
  ],
  "textures": [
    {
      "sampler": 0,
      "source": 0
    }
  ]
}

