{
  "accessors": [
    {
      "bufferView": 2,
      "componentType": 5126,
      "count": 4052,
      "max": [
        0.90851354598999023,
        0.71995890140533447,
        2.002490758895874
      ],
      "min": [
        -0.90996164083480835,
        -0.4453868567943573,
        0.00052026566118001938
      ],
      "type": "VEC3"
    },
    {
      "bufferView": 2,
      "byteOffset": 48624,
      "componentType": 5126,
      "count": 4052,
      "max": [
        0.999580979347229,
        0.99953556060791016,
        0.99964344501495361
      ],
      "min": [
        -0.9994969367980957,
        -0.99980193376541138,
        -1
      ],
      "type": "VEC3"
    },
    {
      "bufferView": 3,
      "componentType": 5126,
      "count": 4052,
      "max": [
        1,
        0.99906522035598755,
        0.9999997615814209,
        1
      ],
      "min": [
        -1,
        -0.9987826943397522,
        -0.9999997615814209,
        1
      ],
      "type": "VEC4"
    },
    {
      "bufferView": 1,
      "componentType": 5126,
      "count": 4052,
      "max": [
        0.99256950616836548,
        0.99255889654159546
      ],
      "min": [
        0.0074304970912635326,
        0.0074411630630493164
      ],
      "type": "VEC2"
    },
    {
      "bufferView": 1,
      "byteOffset": 32416,
      "componentType": 5126,
      "count": 4052,
      "max": [
        0.99256950616836548,
        0.99255889654159546
      ],
      "min": [
        0.0074304970912635326,
        0.0074411630630493164
      ],
      "type": "VEC2"
    },
    {
      "bufferView": 1,
      "byteOffset": 64832,
      "componentType": 5126,
      "count": 4052,
      "max": [
        0.99256950616836548,
        0.99255889654159546
      ],
      "min": [
        0.0074304970912635326,
        0.0074411630630493164
      ],
      "type": "VEC2"
    },
    {
      "bufferView": 0,
      "componentType": 5125,
      "count": 9153,
      "max": [
        4051
      ],
      "min": [
        0
      ],
      "type": "SCALAR"
    }
  ],
  "asset": {
    "extras": {
      "author": "Mingxuan Xie (https://sketchfab.com/vrchitecture)",
      "license": "CC-BY-4.0 (http://creativecommons.org/licenses/by/4.0/)",
      "source": "https://sketchfab.com/3d-models/player-character-3-936862ffd041402dbd5defcbbb6d075b",
      "title": "Player Character 3"
    },
    "generator": "Sketchfab-4.78.0",
    "version": "2.0"
  },
  "bufferViews": [
    {
      "buffer": 0,
      "byteLength": 36612,
      "byteOffset": 0,
      "name": "floatBufferViews",
      "target": 34963
    },
    {
      "buffer": 0,
      "byteLength": 97248,
      "byteOffset": 36612,
      "byteStride": 8,
      "name": "floatBufferViews",
      "target": 34962
    },
    {
      "buffer": 0,
      "byteLength": 97248,
      "byteOffset": 133860,
      "byteStride": 12,
      "name": "floatBufferViews",
      "target": 34962
    },
    {
      "buffer": 0,
      "byteLength": 64832,
      "byteOffset": 231108,
      "byteStride": 16,
      "name": "floatBufferViews",
      "target": 34962
    }
  ],
  "buffers": [
    {
      "byteLength": 295940,
      "uri": "scene.bin"
    }
  ],
  "images": [
    {
      "uri": "textures/Material_85_baseColor.png"
    },
    {
      "uri": "textures/Material_85_normal.png"
    }
  ],
  "materials": [
    {
      "alphaMode": "BLEND",
      "doubleSided": true,
      "emissiveFactor": [
        0,
        0,
        0
      ],
      "name": "Material_85",
      "normalTexture": {
        "index": 1,
        "scale": 1,
        "texCoord": 0
      },
      "pbrMetallicRoughness": {
        "baseColorFactor": [
          1,
          1,
          1,
          1
        ],
        "baseColorTexture": {
          "index": 0,
          "texCoord": 0
        },
        "metallicFactor": 0,
        "roughnessFactor": 0.59999999999999998
      }
    }
  ],
  "meshes": [
    {
      "name": "1073_ZhaoYun_High_Material #85_0",
      "primitives": [
        {
          "attributes": {
            "NORMAL": 1,
            "POSITION": 0,
            "TANGENT": 2,
            "TEXCOORD_0": 3,
            "TEXCOORD_1": 4,
            "TEXCOORD_2": 5
          },
          "indices": 6,
          "material": 0,
          "mode": 4
        }
      ]
    }
  ],
  "nodes": [
    {
      "children": [
        1
      ],
      "name": "RootNode (gltf orientation matrix)",
      "rotation": [
        -0.70710678118654746,
        -0,
        -0,
        0.70710678118654757
      ]
    },
    {
      "children": [
        2
      ],
      "name": "RootNode (model correction matrix)"
    },
    {
      "children": [
        3
      ],
      "matrix": [
        1,
        0,
        0,
        0,
        0,
        0,
        1,
        0,
        0,
        -1,
        0,
        0,
        0,
        0,
        0,
        1
      ],
      "name": "Player Character 3.fbx"
    },
    {
      "children": [
        4
      ],
      "name": "RootNode"
    },
    {
      "children": [
        5
      ],
      "matrix": [
        100,
        0,
        0,
        0,
        0,
        2.2204460492503131e-14,
        -100,
        0,
        0,
        100,
        2.2204460492503131e-14,
        0,
        0,
        -1.8257102000713124e-17,
        0.29816111922264099,
        1
      ],
      "name": "1073_ZhaoYun_High"
    },
    {
      "mesh": 0,
      "name": "1073_ZhaoYun_High_Material #85_0"
    }
  ],
  "samplers": [
    {
      "magFilter": 9729,
      "minFilter": 9987,
      "wrapS": 10497,
      "wrapT": 10497
    }
  ],
  "scene": 0,
  "scenes": [
    {
      "name": "OSG_Scene",
      "nodes": [
        0
      ]
    }
  ],
  "textures": [
    {
      "sampler": 0,
      "source": 0
    },
    {
      "sampler": 0,
      "source": 1
    }
  ]
}

