{
  "accessors": [
    {
      "bufferView": 3,
      "componentType": 5126,
      "count": 11569,
      "max": [
        14.476226806640625,
        11.778263092041016,
        21.7283935546875
      ],
      "min": [
        -16.686798095703125,
        -13.415399551391602,
        -22.778308868408203
      ],
      "type": "VEC3"
    },
    {
      "bufferView": 3,
      "byteOffset": 138828,
      "componentType": 5126,
      "count": 11569,
      "max": [
        0.99991297721862793,
        0.99960720539093018,
        0.99953770637512207
      ],
      "min": [
        -0.99975615739822388,
        -0.99996006488800049,
        -0.99976962804794312
      ],
      "type": "VEC3"
    },
    {
      "bufferView": 4,
      "componentType": 5126,
      "count": 11569,
      "max": [
        0.99992769956588745,
        0.99975007772445679,
        0.99992108345031738,
        1
      ],
      "min": [
        -0.99950993061065674,
        -0.99983519315719604,
        -0.99993550777435303,
        -1
      ],
      "type": "VEC4"
    },
    {
      "bufferView": 2,
      "componentType": 5126,
      "count": 11569,
      "max": [
        0.9996330738067627,
        0.99777185916900635
      ],
      "min": [
        0.0020755555015057325,
        0.0020604487508535385
      ],
      "type": "VEC2"
    },
    {
      "bufferView": 1,
      "componentType": 5125,
      "count": 52485,
      "max": [
        11568
      ],
      "min": [
        0
      ],
      "type": "SCALAR"
    },
    {
      "bufferView": 5,
      "componentType": 5126,
      "count": 9,
      "max": [
        1,
        1.2115092928866034e-08,
        0,
        0,
        0.27716159820556641,
        1,
        0,
        0,
        0.9608231782913208,
        0.99899369478225708,
        1,
        0,
        5.523045539855957,
        13.994743347167969,
        8.8639694695302751e-08,
        1
      ],
      "min": [
        -5.4256499737448394e-08,
        -2.0606144346402289e-07,
        -1,
        0,
        -0.99899369478225708,
        -0.99317121505737305,
        -4.8649948070078608e-08,
        0,
        -0.99317121505737305,
        -0.27716159820556641,
        -2.06448646622448e-07,
        0,
        -12.205183982849121,
        -2.5423200130462646,
        -2.4105383999994956e-06,
        1
      ],
      "type": "MAT4"
    },
    {
      "bufferView": 0,
      "componentType": 5123,
      "count": 11569,
      "max": [
        7,
        7,
        7,
        7
      ],
      "min": [
        1,
        1,
        1,
        1
      ],
      "type": "VEC4"
    },
    {
      "bufferView": 4,
      "byteOffset": 185104,
      "componentType": 5126,
      "count": 11569,
      "max": [
        1,
        0.4999692440032959,
        0.3333333432674408,
        0.23734664916992188
      ],
      "min": [
        0.26469478011131287,
        0,
        0,
        0
      ],
      "type": "VEC4"
    },
    {
      "bufferView": 6,
      "componentType": 5126,
      "count": 30,
      "max": [
        0.96666663885116577
      ],
      "min": [
        0
      ],
      "type": "SCALAR"
    },
    {
      "bufferView": 8,
      "componentType": 5126,
      "count": 30,
      "max": [
        5.2721988210290195e-23,
        1.1566058500157918e-23,
        -2.7755575615628914e-17,
        1
      ],
      "min": [
        -3.9664705709086832e-23,
        -6.6625827325600625e-24,
        -0.13052619993686676,
        0.99144488573074341
      ],
      "type": "VEC4"
    },
    {
      "bufferView": 6,
      "byteOffset": 120,
      "componentType": 5126,
      "count": 30,
      "max": [
        0.96666663885116577
      ],
      "min": [
        0
      ],
      "type": "SCALAR"
    },
    {
      "bufferView": 8,
      "byteOffset": 480,
      "componentType": 5126,
      "count": 30,
      "max": [
        3.0834758489882213e-15,
        2.6798464384131812e-15,
        0.61379808187484741,
        0.89539980888366699
      ],
      "min": [
        2.6042616651231806e-15,
        2.1109081720278606e-15,
        0.44526305794715881,
        0.78946304321289062
      ],
      "type": "VEC4"
    },
    {
      "bufferView": 6,
      "byteOffset": 240,
      "componentType": 5126,
      "count": 30,
      "max": [
        0.96666663885116577
      ],
      "min": [
        0
      ],
      "type": "SCALAR"
    },
    {
      "bufferView": 8,
      "byteOffset": 960,
      "componentType": 5126,
      "count": 30,
      "max": [
        1.1427166907894892e-15,
        1.2929528070616163e-15,
        -0.41112989187240601,
        0.91157674789428711
      ],
      "min": [
        7.0130897549219688e-16,
        9.2615323606614047e-16,
        -0.7286798357963562,
        0.68485450744628906
      ],
      "type": "VEC4"
    },
    {
      "bufferView": 6,
      "byteOffset": 360,
      "componentType": 5126,
      "count": 30,
      "max": [
        0.96666663885116577
      ],
      "min": [
        0
      ],
      "type": "SCALAR"
    },
    {
      "bufferView": 8,
      "byteOffset": 1440,
      "componentType": 5126,
      "count": 30,
      "max": [
        2.605864423055742e-23,
        6.6174449004242214e-24,
        0.42261824011802673,
        1
      ],
      "min": [
        -2.7284164890367228e-23,
        -1.2745796039611415e-23,
        -2.7755575615628914e-17,
        0.90630781650543213
      ],
      "type": "VEC4"
    },
    {
      "bufferView": 6,
      "byteOffset": 480,
      "componentType": 5126,
      "count": 30,
      "max": [
        0.96666663885116577
      ],
      "min": [
        0
      ],
      "type": "SCALAR"
    },
    {
      "bufferView": 8,
      "byteOffset": 1920,
      "componentType": 5126,
      "count": 30,
      "max": [
        7.5985724379279418e-09,
        2.6186713242282167e-08,
        0.14146174490451813,
        0.99997067451477051
      ],
      "min": [
        -3.7045249090539301e-09,
        2.5060844066615573e-08,
        -0.29016044735908508,
        0.95697802305221558
      ],
      "type": "VEC4"
    },
    {
      "bufferView": 6,
      "byteOffset": 600,
      "componentType": 5126,
      "count": 5,
      "max": [
        0.96666663885116577
      ],
      "min": [
        0
      ],
      "type": "SCALAR"
    },
    {
      "bufferView": 7,
      "componentType": 5126,
      "count": 5,
      "max": [
        19.449985504150391,
        1.1920928955078125e-07,
        9.9475983006414026e-14
      ],
      "min": [
        19.449985504150391,
        1.1920928244535389e-07,
        9.9475983006414026e-14
      ],
      "type": "VEC3"
    },
    {
      "bufferView": 6,
      "byteOffset": 620,
      "componentType": 5126,
      "count": 30,
      "max": [
        0.96666663885116577
      ],
      "min": [
        0
      ],
      "type": "SCALAR"
    },
    {
      "bufferView": 8,
      "byteOffset": 2400,
      "componentType": 5126,
      "count": 30,
      "max": [
        8.2718061255302767e-25,
        5.5511151231257827e-17,
        0.13052618503570557,
        1
      ],
      "min": [
        -7.2456612786980317e-18,
        5.5036237063089082e-17,
        -1.1102230246251565e-16,
        0.99144488573074341
      ],
      "type": "VEC4"
    },
    {
      "bufferView": 6,
      "byteOffset": 740,
      "componentType": 5126,
      "count": 30,
      "max": [
        0.96666663885116577
      ],
      "min": [
        0
      ],
      "type": "SCALAR"
    },
    {
      "bufferView": 8,
      "byteOffset": 2880,
      "componentType": 5126,
      "count": 30,
      "max": [
        -4.2815447187649625e-08,
        6.2162271774468536e-08,
        0.90937948226928711,
        0.63715857267379761
      ],
      "min": [
        -5.7445330270411432e-08,
        4.8962689902509737e-08,
        0.77073276042938232,
        0.41596752405166626
      ],
      "type": "VEC4"
    },
    {
      "bufferView": 6,
      "byteOffset": 860,
      "componentType": 5126,
      "count": 30,
      "max": [
        0.96666663885116577
      ],
      "min": [
        0
      ],
      "type": "SCALAR"
    },
    {
      "bufferView": 7,
      "byteOffset": 60,
      "componentType": 5126,
      "count": 30,
      "max": [
        2.1875140987503983e-07,
        12.380485534667969,
        -5.0044493675231934
      ],
      "min": [
        2.1875140987503983e-07,
        5.086357593536377,
        -5.0044493675231934
      ],
      "type": "VEC3"
    },
    {
      "bufferView": 6,
      "byteOffset": 980,
      "componentType": 5126,
      "count": 30,
      "max": [
        0.96666663885116577
      ],
      "min": [
        0
      ],
      "type": "SCALAR"
    },
    {
      "bufferView": 8,
      "byteOffset": 3360,
      "componentType": 5126,
      "count": 30,
      "max": [
        0.4765695333480835,
        -0.52238065004348755,
        -0.4292275607585907,
        0.56192851066589355
      ],
      "min": [
        0.42922762036323547,
        -0.56192857027053833,
        -0.47656947374343872,
        0.52238059043884277
      ],
      "type": "VEC4"
    }
  ],
  "animations": [
    {
      "channels": [
        {
          "sampler": 0,
          "target": {
            "node": 12,
            "path": "rotation"
          }
        },
        {
          "sampler": 1,
          "target": {
            "node": 11,
            "path": "rotation"
          }
        },
        {
          "sampler": 2,
          "target": {
            "node": 10,
            "path": "rotation"
          }
        },
        {
          "sampler": 3,
          "target": {
            "node": 14,
            "path": "rotation"
          }
        },
        {
          "sampler": 4,
          "target": {
            "node": 13,
            "path": "rotation"
          }
        },
        {
          "sampler": 5,
          "target": {
            "node": 16,
            "path": "translation"
          }
        },
        {
          "sampler": 6,
          "target": {
            "node": 16,
            "path": "rotation"
          }
        },
        {
          "sampler": 7,
          "target": {
            "node": 15,
            "path": "rotation"
          }
        },
        {
          "sampler": 8,
          "target": {
            "node": 9,
            "path": "translation"
          }
        },
        {
          "sampler": 9,
          "target": {
            "node": 9,
            "path": "rotation"
          }
        }
      ],
      "name": "Take 001",
      "samplers": [
        {
          "input": 8,
          "interpolation": "LINEAR",
          "output": 9
        },
        {
          "input": 10,
          "interpolation": "LINEAR",
          "output": 11
        },
        {
          "input": 12,
          "interpolation": "LINEAR",
          "output": 13
        },
        {
          "input": 14,
          "interpolation": "LINEAR",
          "output": 15
        },
        {
          "input": 16,
          "interpolation": "LINEAR",
          "output": 17
        },
        {
          "input": 18,
          "interpolation": "LINEAR",
          "output": 19
        },
        {
          "input": 20,
          "interpolation": "LINEAR",
          "output": 21
        },
        {
          "input": 22,
          "interpolation": "LINEAR",
          "output": 23
        },
        {
          "input": 24,
          "interpolation": "LINEAR",
          "output": 25
        },
        {
          "input": 26,
          "interpolation": "LINEAR",
          "output": 27
        }
      ]
    }
  ],
  "asset": {
    "extras": {
      "author": "Pete Jiadong Qiang (https://sketchfab.com/qiangjiadong)",
      "license": "CC-BY-4.0 (http://creativecommons.org/licenses/by/4.0/)",
      "source": "https://sketchfab.com/3d-models/npc-ultralisk-138a4e21b4ea48ffa53658e3acef810d",
      "title": "NPC: Ultralisk"
    },
    "generator": "Sketchfab-5.29.0",
    "version": "2.0"
  },
  "bufferViews": [
    {
      "buffer": 0,
      "byteLength": 92552,
      "byteOffset": 0,
      "byteStride": 8,
      "name": "shortBufferViews",
      "target": 34962
    },
    {
      "buffer": 0,
      "byteLength": 209940,
      "byteOffset": 92552,
      "name": "floatBufferViews",
      "target": 34963
    },
    {
      "buffer": 0,
      "byteLength": 92552,
      "byteOffset": 302492,
      "byteStride": 8,
      "name": "floatBufferViews",
      "target": 34962
    },
    {
      "buffer": 0,
      "byteLength": 277656,
      "byteOffset": 395044,
      "byteStride": 12,
      "name": "floatBufferViews",
      "target": 34962
    },
    {
      "buffer": 0,
      "byteLength": 370208,
      "byteOffset": 672700,
      "byteStride": 16,
      "name": "floatBufferViews",
      "target": 34962
    },
    {
      "buffer": 0,
      "byteLength": 576,
      "byteOffset": 1042908,
      "byteStride": 64,
      "name": "floatBufferViews"
    },
    {
      "buffer": 0,
      "byteLength": 1100,
      "byteOffset": 1043484,
      "name": "floatBufferViews"
    },
    {
      "buffer": 0,
      "byteLength": 420,
      "byteOffset": 1044584,
      "byteStride": 12,
      "name": "floatBufferViews"
    },
    {
      "buffer": 0,
      "byteLength": 3840,
      "byteOffset": 1045004,
      "byteStride": 16,
      "name": "floatBufferViews"
    }
  ],
  "buffers": [
    {
      "byteLength": 1048844,
      "uri": "scene.bin"
    }
  ],
  "images": [
    {
      "uri": "textures/Material_3_baseColor.jpeg"
    }
  ],
  "materials": [
    {
      "doubleSided": true,
      "emissiveFactor": [
        0,
        0,
        0
      ],
      "name": "Material_3",
      "pbrMetallicRoughness": {
        "baseColorFactor": [
          1,
          1,
          1,
          1
        ],
        "baseColorTexture": {
          "index": 0,
          "texCoord": 0
        },
        "metallicFactor": 0,
        "roughnessFactor": 0.89297135959999996
      }
    }
  ],
  "meshes": [
    {
      "name": "Model_Material #3_0",
      "primitives": [
        {
          "attributes": {
            "JOINTS_0": 6,
            "NORMAL": 1,
            "POSITION": 0,
            "TANGENT": 2,
            "TEXCOORD_0": 3,
            "WEIGHTS_0": 7
          },
          "indices": 4,
          "material": 0,
          "mode": 4
        }
      ]
    }
  ],
  "nodes": [
    {
      "children": [
        1
      ],
      "name": "RootNode (gltf orientation matrix)",
      "rotation": [
        -0.70710678118654746,
        -0,
        -0,
        0.70710678118654757
      ]
    },
    {
      "children": [
        2
      ],
      "name": "RootNode (model correction matrix)"
    },
    {
      "children": [
        3
      ],
      "matrix": [
        1,
        0,
        0,
        0,
        0,
        0,
        1,
        0,
        0,
        -1,
        0,
        0,
        0,
        0,
        0,
        1
      ],
      "name": "8cfb26096cf443b6aee24bf6cfc14bf8.fbx"
    },
    {
      "children": [
        4
      ],
      "name": ""
    },
    {
      "children": [
        5
      ],
      "name": "RootNode"
    },
    {
      "children": [
        6,
        8,
        7,
        17
      ],
      "name": ""
    },
    {
      "children": [
        9
      ],
      "name": "_rootJoint"
    },
    {
      "matrix": [
        -3.8097727298736572,
        0.47510230541229237,
        6.8331966400146493,
        0,
        6.0852770888262251,
        3.8242192708709828,
        3.1268860593914338,
        0,
        -3.1444714746737126,
        6.8251219581652434,
        -2.2277059556549283,
        0,
        -47.03714544610191,
        93.629740565917956,
        -18.379027935206409,
        1
      ],
      "name": ""
    },
    {
      "mesh": 0,
      "name": "",
      "skin": 0
    },
    {
      "children": [
        10,
        13,
        15
      ],
      "name": "Bone001_00",
      "rotation": [
        0.47656956315040588,
        -0.52238065004348755,
        -0.47656947374343872,
        0.522380530834198
      ],
      "translation": [
        2.1875140987503983e-07,
        5.086357593536377,
        -5.0044493675231934
      ]
    },
    {
      "children": [
        11
      ],
      "name": "Bone002_01",
      "rotation": [
        2.5483409734619253e-15,
        2.3950748085792327e-15,
        -0.7286798357963562,
        0.68485450744628906
      ],
      "translation": [
        8.1804065704345703,
        3.814697265625e-06,
        -8.9249681423098082e-08
      ]
    },
    {
      "children": [
        12
      ],
      "name": "Bone003_02",
      "rotation": [
        1.1303957918903755e-14,
        7.6636508689617924e-15,
        0.61379808187484741,
        0.78946304321289062
      ],
      "translation": [
        10.011314392089844,
        2.1457672119140625e-06,
        1.6227461401285836e-06
      ]
    },
    {
      "name": "Bone004_03",
      "rotation": [
        6.0507154842071031e-15,
        -4.4408926278962182e-16,
        -7.4505805969238281e-09,
        1
      ],
      "translation": [
        7.3448286056518555,
        3.814697265625e-05,
        8.2980477600358427e-08
      ]
    },
    {
      "children": [
        14
      ],
      "name": "Bone005_04",
      "rotation": [
        7.5985635561437448e-09,
        2.5060833408474537e-08,
        -0.29016044735908508,
        0.95697802305221558
      ],
      "translation": [
        8.1804065704345703,
        3.337860107421875e-06,
        -2.3840510721129249e-07
      ]
    },
    {
      "name": "Bone006_05",
      "rotation": [
        -7.9936057773011271e-15,
        -1.7763568394002505e-15,
        -5.5511151231257827e-17,
        1
      ],
      "translation": [
        8.1411781311035156,
        -4.76837158203125e-07,
        -5.6843418860808015e-14
      ]
    },
    {
      "children": [
        16
      ],
      "name": "Bone007_06",
      "rotation": [
        -4.2815443634935946e-08,
        6.2162271774468536e-08,
        0.77073276042938232,
        0.63715851306915283
      ],
      "translation": [
        8.1804065704345703,
        3.814697265625e-06,
        -2.3841079155317857e-07
      ]
    },
    {
      "name": "Bone008_07",
      "rotation": [
        -8.8817836676056603e-16,
        -4.4408931572918102e-16,
        8.9406967163085938e-08,
        1
      ],
      "translation": [
        19.449985504150391,
        1.1920928955078125e-07,
        9.9475983006414026e-14
      ]
    },
    {
      "name": "Model",
      "rotation": [
        0.27849501371383667,
        0.75136655569076538,
        0.42247322201728821,
        -0.42356252670288086
      ],
      "scale": [
        7.8378992080688477,
        7.8378992080688477,
        7.8378992080688477
      ],
      "translation": [
        0,
        0,
        5.8906745834974572e-05
      ]
    }
  ],
  "samplers": [
    {
      "magFilter": 9729,
      "minFilter": 9987,
      "wrapS": 10497,
      "wrapT": 10497
    }
  ],
  "scene": 0,
  "scenes": [
    {
      "name": "OSG_Scene",
      "nodes": [
        0
      ]
    }
  ],
  "skins": [
    {
      "inverseBindMatrices": 5,
      "joints": [
        6,
        9,
        10,
        11,
        12,
        13,
        14,
        15,
        16
      ],
      "skeleton": 6
    }
  ],
  "textures": [
    {
      "sampler": 0,
      "source": 0
    }
  ]
}

