{
  "accessors": [
    {
      "bufferView": 2,
      "componentType": 5126,
      "count": 7416,
      "max": [
        0.10756009817123413,
        0.49992400407791138,
        -5.3790378570556641
      ],
      "min": [
        -0.38196408748626709,
        -0.52344655990600586,
        -5.7842941284179688
      ],
      "type": "VEC3"
    },
    {
      "bufferView": 2,
      "byteOffset": 88992,
      "componentType": 5126,
      "count": 7416,
      "max": [
        0.99983835220336914,
        0.99998950958251953,
        0.99997389316558838
      ],
      "min": [
        -0.99937528371810913,
        -0.99962747097015381,
        -0.9999014139175415
      ],
      "type": "VEC3"
    },
    {
      "bufferView": 3,
      "componentType": 5126,
      "count": 7416,
      "max": [
        0.99999070167541504,
        0.99976664781570435,
        0.99998468160629272,
        1
      ],
      "min": [
        -0.9999624490737915,
        -0.99850010871887207,
        -0.99919754266738892,
        -1
      ],
      "type": "VEC4"
    },
    {
      "bufferView": 1,
      "componentType": 5126,
      "count": 7416,
      "max": [
        0.99750757217407227,
        0.999522864818573
      ],
      "min": [
        0.0028024734929203987,
        0.002200007438659668
      ],
      "type": "VEC2"
    },
    {
      "bufferView": 0,
      "componentType": 5125,
      "count": 24852,
      "max": [
        7415
      ],
      "min": [
        0
      ],
      "type": "SCALAR"
    }
  ],
  "asset": {
    "extras": {
      "author": "Mingxuan Xie (https://sketchfab.com/vrchitecture)",
      "license": "CC-BY-4.0 (http://creativecommons.org/licenses/by/4.0/)",
      "source": "https://sketchfab.com/3d-models/npc-qiu-jin-af66701acddd45c89ac4afeccb534c4e",
      "title": "NPC Qiu Jin"
    },
    "generator": "Sketchfab-5.29.0",
    "version": "2.0"
  },
  "bufferViews": [
    {
      "buffer": 0,
      "byteLength": 99408,
      "byteOffset": 0,
      "name": "floatBufferViews",
      "target": 34963
    },
    {
      "buffer": 0,
      "byteLength": 59328,
      "byteOffset": 99408,
      "byteStride": 8,
      "name": "floatBufferViews",
      "target": 34962
    },
    {
      "buffer": 0,
      "byteLength": 177984,
      "byteOffset": 158736,
      "byteStride": 12,
      "name": "floatBufferViews",
      "target": 34962
    },
    {
      "buffer": 0,
      "byteLength": 118656,
      "byteOffset": 336720,
      "byteStride": 16,
      "name": "floatBufferViews",
      "target": 34962
    }
  ],
  "buffers": [
    {
      "byteLength": 455376,
      "uri": "scene.bin"
    }
  ],
  "images": [
    {
      "uri": "textures/material0_baseColor.jpeg"
    }
  ],
  "materials": [
    {
      "doubleSided": true,
      "emissiveFactor": [
        0,
        0,
        0
      ],
      "name": "material0",
      "pbrMetallicRoughness": {
        "baseColorFactor": [
          1,
          1,
          1,
          1
        ],
        "baseColorTexture": {
          "index": 0,
          "texCoord": 0
        },
        "metallicFactor": 0,
        "roughnessFactor": 0.95770514949999996
      }
    }
  ],
  "meshes": [
    {
      "name": "Model_material0_0",
      "primitives": [
        {
          "attributes": {
            "NORMAL": 1,
            "POSITION": 0,
            "TANGENT": 2,
            "TEXCOORD_0": 3
          },
          "indices": 4,
          "material": 0,
          "mode": 4
        }
      ]
    }
  ],
  "nodes": [
    {
      "children": [
        1
      ],
      "name": "RootNode (gltf orientation matrix)",
      "rotation": [
        -0.70710678118654746,
        -0,
        -0,
        0.70710678118654757
      ]
    },
    {
      "children": [
        2
      ],
      "name": "RootNode (model correction matrix)"
    },
    {
      "children": [
        3
      ],
      "matrix": [
        1,
        0,
        0,
        0,
        0,
        0,
        1,
        0,
        0,
        -1,
        0,
        0,
        0,
        0,
        0,
        1
      ],
      "name": "866e5f98412f44a29ee8aeed9ee675c0.fbx"
    },
    {
      "children": [
        4
      ],
      "name": "RootNode"
    },
    {
      "children": [
        5
      ],
      "matrix": [
        -0.97706925935400291,
        -0.12614668767423989,
        -0.17153039268374037,
        0,
        -0.17190415584493499,
        -0.0079994081146390617,
        0.98508120004041078,
        0,
        -0.12563687209040469,
        0.99197934588308501,
        -0.013869164095434039,
        0,
        0.13211369514465332,
        0.37870866060256958,
        0.6063542366027832,
        1
      ],
      "name": "Model"
    },
    {
      "children": [
        6
      ],
      "matrix": [
        0.94014412947019566,
        0.34045857257757017,
        0.014730111376741991,
        0,
        0.047332598497540894,
        -0.17326636553463151,
        0.98373695248978521,
        0,
        0.33747391149864969,
        -0.92415730637855298,
        -0.1790101453128809,
        0,
        2.0008049011230469,
        -5.1234502792358398,
        -0.98121213912963867,
        1
      ],
      "name": ""
    },
    {
      "mesh": 0,
      "name": "Model_material0_0"
    }
  ],
  "samplers": [
    {
      "magFilter": 9729,
      "minFilter": 9987,
      "wrapS": 10497,
      "wrapT": 10497
    }
  ],
  "scene": 0,
  "scenes": [
    {
      "name": "OSG_Scene",
      "nodes": [
        0
      ]
    }
  ],
  "textures": [
    {
      "sampler": 0,
      "source": 0
    }
  ]
}

