{
  "accessors": [
    {
      "bufferView": 2,
      "componentType": 5126,
      "count": 10617,
      "max": [
        4124.57861328125,
        1905.16259765625,
        11525.5390625
      ],
      "min": [
        -3771.606689453125,
        -1270.50634765625,
        -21.272500991821289
      ],
      "type": "VEC3"
    },
    {
      "bufferView": 2,
      "byteOffset": 127404,
      "componentType": 5126,
      "count": 10617,
      "max": [
        0.99995154142379761,
        0.99999827146530151,
        0.99955117702484131
      ],
      "min": [
        -0.99998277425765991,
        -0.99996918439865112,
        -0.99966537952423096
      ],
      "type": "VEC3"
    },
    {
      "bufferView": 3,
      "componentType": 5126,
      "count": 10617,
      "max": [
        0.99999934434890747,
        0.99912375211715698,
        0.99983859062194824,
        1
      ],
      "min": [
        -0.99999761581420898,
        -0.99594950675964355,
        -0.99995887279510498,
        1
      ],
      "type": "VEC4"
    },
    {
      "bufferView": 1,
      "componentType": 5126,
      "count": 10617,
      "max": [
        0.71042263507843018,
        0.99949127435684204
      ],
      "min": [
        0.0004984438419342041,
        0.30548202991485596
      ],
      "type": "VEC2"
    },
    {
      "bufferView": 0,
      "componentType": 5125,
      "count": 30000,
      "max": [
        10616
      ],
      "min": [
        0
      ],
      "type": "SCALAR"
    }
  ],
  "asset": {
    "extras": {
      "author": "Mingxuan Xie (https://sketchfab.com/vrchitecture)",
      "license": "CC-BY-4.0 (http://creativecommons.org/licenses/by/4.0/)",
      "source": "https://sketchfab.com/3d-models/player-character-5-07e0b80f249348648a5e84b014dfb5ce",
      "title": "Player Character 5"
    },
    "generator": "Sketchfab-4.78.0",
    "version": "2.0"
  },
  "bufferViews": [
    {
      "buffer": 0,
      "byteLength": 120000,
      "byteOffset": 0,
      "name": "floatBufferViews",
      "target": 34963
    },
    {
      "buffer": 0,
      "byteLength": 84936,
      "byteOffset": 120000,
      "byteStride": 8,
      "name": "floatBufferViews",
      "target": 34962
    },
    {
      "buffer": 0,
      "byteLength": 254808,
      "byteOffset": 204936,
      "byteStride": 12,
      "name": "floatBufferViews",
      "target": 34962
    },
    {
      "buffer": 0,
      "byteLength": 169872,
      "byteOffset": 459744,
      "byteStride": 16,
      "name": "floatBufferViews",
      "target": 34962
    }
  ],
  "buffers": [
    {
      "byteLength": 629616,
      "uri": "scene.bin"
    }
  ],
  "images": [
    {
      "uri": "textures/Material_53_baseColor.png"
    }
  ],
  "materials": [
    {
      "doubleSided": true,
      "emissiveFactor": [
        0,
        0,
        0
      ],
      "name": "Material_53",
      "pbrMetallicRoughness": {
        "baseColorFactor": [
          1,
          1,
          1,
          1
        ],
        "baseColorTexture": {
          "index": 0,
          "texCoord": 0
        },
        "metallicFactor": 0,
        "roughnessFactor": 0.59999999999999998
      }
    }
  ],
  "meshes": [
    {
      "name": "node_id6_Material_53_0",
      "primitives": [
        {
          "attributes": {
            "NORMAL": 1,
            "POSITION": 0,
            "TANGENT": 2,
            "TEXCOORD_0": 3
          },
          "indices": 4,
          "material": 0,
          "mode": 4
        }
      ]
    }
  ],
  "nodes": [
    {
      "children": [
        1
      ],
      "name": "RootNode (gltf orientation matrix)",
      "rotation": [
        -0.70710678118654746,
        -0,
        -0,
        0.70710678118654757
      ]
    },
    {
      "children": [
        2
      ],
      "name": "RootNode (model correction matrix)"
    },
    {
      "children": [
        3
      ],
      "matrix": [
        1,
        0,
        0,
        0,
        0,
        0,
        1,
        0,
        0,
        -1,
        0,
        0,
        0,
        0,
        0,
        1
      ],
      "name": "Player Character 5.fbx"
    },
    {
      "children": [
        4
      ],
      "name": "RootNode"
    },
    {
      "children": [
        5
      ],
      "name": "root"
    },
    {
      "children": [
        6
      ],
      "matrix": [
        -0.016382422174669245,
        -0.00014524637621868291,
        -0.00014307370591530507,
        0,
        -0.00014394990787190977,
        9.845167570303119e-05,
        0.016382803525208097,
        0,
        -0.00014437869691616968,
        0.016382784628921978,
        -9.9720166759326807e-05,
        0,
        -1.1359264850616455,
        0.0038671370130032301,
        -0.64374512434005737,
        1
      ],
      "name": "node_id6"
    },
    {
      "mesh": 0,
      "name": "node_id6_Material_53_0"
    }
  ],
  "samplers": [
    {
      "magFilter": 9729,
      "minFilter": 9987,
      "wrapS": 10497,
      "wrapT": 10497
    }
  ],
  "scene": 0,
  "scenes": [
    {
      "name": "OSG_Scene",
      "nodes": [
        0
      ]
    }
  ],
  "textures": [
    {
      "sampler": 0,
      "source": 0
    }
  ]
}

