{
  "accessors": [
    {
      "bufferView": 2,
      "componentType": 5126,
      "count": 3264,
      "max": [
        2624.25244140625,
        26866.548828125,
        2560.745361328125
      ],
      "min": [
        -3123.882080078125,
        16755.630859375,
        -3803.708251953125
      ],
      "type": "VEC3"
    },
    {
      "bufferView": 2,
      "byteOffset": 39168,
      "componentType": 5126,
      "count": 3264,
      "max": [
        0.99994766712188721,
        0.9993889331817627,
        0.99909603595733643
      ],
      "min": [
        -0.9999992847442627,
        -0.99856561422348022,
        -0.99920099973678589
      ],
      "type": "VEC3"
    },
    {
      "bufferView": 3,
      "componentType": 5126,
      "count": 3264,
      "max": [
        1,
        0.97606480121612549,
        1,
        1
      ],
      "min": [
        -1,
        -0.94849807024002075,
        -0.99999606609344482,
        1
      ],
      "type": "VEC4"
    },
    {
      "bufferView": 1,
      "componentType": 5126,
      "count": 3264,
      "max": [
        0.99272304773330688,
        0.99272829294204712
      ],
      "min": [
        0.0072769350372254848,
        0.0072717666625976562
      ],
      "type": "VEC2"
    },
    {
      "bufferView": 1,
      "byteOffset": 26112,
      "componentType": 5126,
      "count": 3264,
      "max": [
        0.99272304773330688,
        0.99272829294204712
      ],
      "min": [
        0.0072769350372254848,
        0.0072717666625976562
      ],
      "type": "VEC2"
    },
    {
      "bufferView": 1,
      "byteOffset": 52224,
      "componentType": 5126,
      "count": 3264,
      "max": [
        0.99272304773330688,
        0.99272829294204712
      ],
      "min": [
        0.0072769350372254848,
        0.0072717666625976562
      ],
      "type": "VEC2"
    },
    {
      "bufferView": 0,
      "componentType": 5125,
      "count": 7491,
      "max": [
        3263
      ],
      "min": [
        0
      ],
      "type": "SCALAR"
    },
    {
      "bufferView": 2,
      "byteOffset": 78336,
      "componentType": 5126,
      "count": 8412,
      "max": [
        7961.27978515625,
        25730.9375,
        3510.884765625
      ],
      "min": [
        -8746.7490234375,
        -30.330059051513672,
        -5019.60595703125
      ],
      "type": "VEC3"
    },
    {
      "bufferView": 2,
      "byteOffset": 179280,
      "componentType": 5126,
      "count": 8412,
      "max": [
        0.99997216463088989,
        0.99873965978622437,
        0.99981522560119629
      ],
      "min": [
        -0.99994862079620361,
        -0.99995046854019165,
        -0.99898850917816162
      ],
      "type": "VEC3"
    },
    {
      "bufferView": 3,
      "byteOffset": 52224,
      "componentType": 5126,
      "count": 8412,
      "max": [
        1,
        0.99712997674942017,
        1,
        1
      ],
      "min": [
        -0.99999994039535522,
        -0.99773883819580078,
        -0.99999785423278809,
        1
      ],
      "type": "VEC4"
    },
    {
      "bufferView": 1,
      "byteOffset": 78336,
      "componentType": 5126,
      "count": 8412,
      "max": [
        0.99382263422012329,
        0.9938240647315979
      ],
      "min": [
        0.0061773550696671009,
        0.006175994873046875
      ],
      "type": "VEC2"
    },
    {
      "bufferView": 1,
      "byteOffset": 145632,
      "componentType": 5126,
      "count": 8412,
      "max": [
        0.99382263422012329,
        0.9938240647315979
      ],
      "min": [
        0.0061773550696671009,
        0.006175994873046875
      ],
      "type": "VEC2"
    },
    {
      "bufferView": 1,
      "byteOffset": 212928,
      "componentType": 5126,
      "count": 8412,
      "max": [
        0.99382263422012329,
        0.9938240647315979
      ],
      "min": [
        0.0061773550696671009,
        0.006175994873046875
      ],
      "type": "VEC2"
    },
    {
      "bufferView": 0,
      "byteOffset": 29964,
      "componentType": 5125,
      "count": 18921,
      "max": [
        8411
      ],
      "min": [
        0
      ],
      "type": "SCALAR"
    },
    {
      "bufferView": 2,
      "byteOffset": 280224,
      "componentType": 5126,
      "count": 4354,
      "max": [
        1677.5294189453125,
        27773.90625,
        2495.150390625
      ],
      "min": [
        -2295.442626953125,
        22791.501953125,
        -1956.6494140625
      ],
      "type": "VEC3"
    },
    {
      "bufferView": 2,
      "byteOffset": 332472,
      "componentType": 5126,
      "count": 4354,
      "max": [
        0.99996989965438843,
        0.99978041648864746,
        0.99996322393417358
      ],
      "min": [
        -0.99993622303009033,
        -0.99999302625656128,
        -0.99998182058334351
      ],
      "type": "VEC3"
    },
    {
      "bufferView": 3,
      "byteOffset": 186816,
      "componentType": 5126,
      "count": 4354,
      "max": [
        1,
        0.99979782104492188,
        1,
        1
      ],
      "min": [
        -1,
        -0.99827980995178223,
        -1,
        1
      ],
      "type": "VEC4"
    },
    {
      "bufferView": 1,
      "byteOffset": 280224,
      "componentType": 5126,
      "count": 4354,
      "max": [
        0.99312317371368408,
        0.99313151836395264
      ],
      "min": [
        0.006876820232719183,
        0.0068684816360473633
      ],
      "type": "VEC2"
    },
    {
      "bufferView": 1,
      "byteOffset": 315056,
      "componentType": 5126,
      "count": 4354,
      "max": [
        0.99312317371368408,
        0.99313151836395264
      ],
      "min": [
        0.006876820232719183,
        0.0068684816360473633
      ],
      "type": "VEC2"
    },
    {
      "bufferView": 1,
      "byteOffset": 349888,
      "componentType": 5126,
      "count": 4354,
      "max": [
        0.99312317371368408,
        0.99313151836395264
      ],
      "min": [
        0.006876820232719183,
        0.0068684816360473633
      ],
      "type": "VEC2"
    },
    {
      "bufferView": 0,
      "byteOffset": 105648,
      "componentType": 5125,
      "count": 9714,
      "max": [
        4353
      ],
      "min": [
        0
      ],
      "type": "SCALAR"
    }
  ],
  "asset": {
    "extras": {
      "author": "Mingxuan Xie (https://sketchfab.com/vrchitecture)",
      "license": "CC-BY-4.0 (http://creativecommons.org/licenses/by/4.0/)",
      "source": "https://sketchfab.com/3d-models/player-character-2-1cf28edf60d143579ac1571be6ff555c",
      "title": "Player Character 2"
    },
    "generator": "Sketchfab-4.78.0",
    "version": "2.0"
  },
  "bufferViews": [
    {
      "buffer": 0,
      "byteLength": 144504,
      "byteOffset": 0,
      "name": "floatBufferViews",
      "target": 34963
    },
    {
      "buffer": 0,
      "byteLength": 384720,
      "byteOffset": 144504,
      "byteStride": 8,
      "name": "floatBufferViews",
      "target": 34962
    },
    {
      "buffer": 0,
      "byteLength": 384720,
      "byteOffset": 529224,
      "byteStride": 12,
      "name": "floatBufferViews",
      "target": 34962
    },
    {
      "buffer": 0,
      "byteLength": 256480,
      "byteOffset": 913944,
      "byteStride": 16,
      "name": "floatBufferViews",
      "target": 34962
    }
  ],
  "buffers": [
    {
      "byteLength": 1170424,
      "uri": "scene.bin"
    }
  ],
  "images": [
    {
      "uri": "textures/Material_58_baseColor.png"
    },
    {
      "uri": "textures/Material_56_baseColor.png"
    },
    {
      "uri": "textures/Material_54_baseColor.png"
    }
  ],
  "materials": [
    {
      "alphaMode": "BLEND",
      "doubleSided": true,
      "emissiveFactor": [
        0,
        0,
        0
      ],
      "name": "Material_54",
      "pbrMetallicRoughness": {
        "baseColorFactor": [
          1,
          1,
          1,
          1
        ],
        "baseColorTexture": {
          "index": 2,
          "texCoord": 0
        },
        "metallicFactor": 0,
        "roughnessFactor": 0.59999999999999998
      }
    },
    {
      "alphaMode": "BLEND",
      "doubleSided": true,
      "emissiveFactor": [
        0,
        0,
        0
      ],
      "name": "Material_56",
      "pbrMetallicRoughness": {
        "baseColorFactor": [
          1,
          1,
          1,
          1
        ],
        "baseColorTexture": {
          "index": 1,
          "texCoord": 0
        },
        "metallicFactor": 0,
        "roughnessFactor": 0.59999999999999998
      }
    },
    {
      "alphaMode": "BLEND",
      "doubleSided": true,
      "emissiveFactor": [
        0,
        0,
        0
      ],
      "name": "Material_58",
      "pbrMetallicRoughness": {
        "baseColorFactor": [
          1,
          1,
          1,
          1
        ],
        "baseColorTexture": {
          "index": 0,
          "texCoord": 0
        },
        "metallicFactor": 0,
        "roughnessFactor": 0.59999999999999998
      }
    }
  ],
  "meshes": [
    {
      "name": "node_id7_Material_54_0",
      "primitives": [
        {
          "attributes": {
            "NORMAL": 1,
            "POSITION": 0,
            "TANGENT": 2,
            "TEXCOORD_0": 3,
            "TEXCOORD_1": 4,
            "TEXCOORD_2": 5
          },
          "indices": 6,
          "material": 0,
          "mode": 4
        }
      ]
    },
    {
      "name": "node_id7_2_Material_56_0",
      "primitives": [
        {
          "attributes": {
            "NORMAL": 8,
            "POSITION": 7,
            "TANGENT": 9,
            "TEXCOORD_0": 10,
            "TEXCOORD_1": 11,
            "TEXCOORD_2": 12
          },
          "indices": 13,
          "material": 1,
          "mode": 4
        }
      ]
    },
    {
      "name": "node_id7_3_Material_58_0",
      "primitives": [
        {
          "attributes": {
            "NORMAL": 15,
            "POSITION": 14,
            "TANGENT": 16,
            "TEXCOORD_0": 17,
            "TEXCOORD_1": 18,
            "TEXCOORD_2": 19
          },
          "indices": 20,
          "material": 2,
          "mode": 4
        }
      ]
    }
  ],
  "nodes": [
    {
      "children": [
        1
      ],
      "name": "RootNode (gltf orientation matrix)",
      "rotation": [
        -0.70710678118654746,
        -0,
        -0,
        0.70710678118654757
      ]
    },
    {
      "children": [
        2
      ],
      "name": "RootNode (model correction matrix)"
    },
    {
      "children": [
        3
      ],
      "matrix": [
        1,
        0,
        0,
        0,
        0,
        0,
        1,
        0,
        0,
        -1,
        0,
        0,
        0,
        0,
        0,
        1
      ],
      "name": "Player Character 2.fbx"
    },
    {
      "children": [
        4
      ],
      "name": "RootNode"
    },
    {
      "children": [
        5
      ],
      "matrix": [
        0.99997089702025765,
        -0.0076292275166795218,
        0,
        0,
        0.0076292275166795218,
        0.99997089702025765,
        0,
        0,
        0,
        0,
        1,
        0,
        1.9690659046173096,
        0.13503198325634003,
        1.5260506868362427,
        1
      ],
      "name": "root"
    },
    {
      "children": [
        6,
        7,
        9
      ],
      "matrix": [
        0.0069892595904109747,
        6.8932155113158168e-05,
        -8.6386074882829385e-05,
        0,
        -6.8880720302869736e-05,
        0.0069897928963552885,
        4.5870028208017497e-06,
        0,
        8.642710188424051e-05,
        -3.7351817487240778e-06,
        0.0069895984671968364,
        0,
        3.1499903202056885,
        0.3977532684803009,
        1.7313556671142578,
        1
      ],
      "name": "node_id7"
    },
    {
      "mesh": 0,
      "name": "node_id7_Material_54_0"
    },
    {
      "children": [
        8
      ],
      "matrix": [
        1,
        6.2680438096818254e-19,
        -5.5511151231257852e-17,
        0,
        -6.2680438096817638e-19,
        1,
        1.110223024625157e-16,
        0,
        5.5511151231257852e-17,
        -1.110223024625157e-16,
        1,
        0,
        2.2737367544323206e-13,
        8.9528384705772623e-13,
        -3.637978807091713e-12,
        1
      ],
      "name": "node_id7_2"
    },
    {
      "mesh": 1,
      "name": "node_id7_2_Material_56_0"
    },
    {
      "children": [
        10
      ],
      "matrix": [
        1,
        6.2680438096818254e-19,
        -5.5511151231257852e-17,
        0,
        -6.2680438096817638e-19,
        1,
        1.110223024625157e-16,
        0,
        5.5511151231257852e-17,
        -1.110223024625157e-16,
        1,
        0,
        2.2737367544323206e-13,
        8.9528384705772623e-13,
        -3.637978807091713e-12,
        1
      ],
      "name": "node_id7_3"
    },
    {
      "mesh": 2,
      "name": "node_id7_3_Material_58_0"
    }
  ],
  "samplers": [
    {
      "magFilter": 9729,
      "minFilter": 9987,
      "wrapS": 10497,
      "wrapT": 10497
    }
  ],
  "scene": 0,
  "scenes": [
    {
      "name": "OSG_Scene",
      "nodes": [
        0
      ]
    }
  ],
  "textures": [
    {
      "sampler": 0,
      "source": 0
    },
    {
      "sampler": 0,
      "source": 1
    },
    {
      "sampler": 0,
      "source": 2
    }
  ]
}

