{
  "accessors": [
    {
      "bufferView": 2,
      "componentType": 5126,
      "count": 15885,
      "max": [
        1.8602094650268555,
        0.7320597767829895,
        0.30719375610351562
      ],
      "min": [
        0.0047880569472908974,
        -0.70397180318832397,
        -0.19310677051544189
      ],
      "type": "VEC3"
    },
    {
      "bufferView": 2,
      "byteOffset": 190620,
      "componentType": 5126,
      "count": 15885,
      "max": [
        0.99979758262634277,
        0.99991315603256226,
        0.99964559078216553
      ],
      "min": [
        -0.99994045495986938,
        -0.99982148408889771,
        -0.99993056058883667
      ],
      "type": "VEC3"
    },
    {
      "bufferView": 3,
      "componentType": 5126,
      "count": 15885,
      "max": [
        0.99997460842132568,
        0.99978882074356079,
        0.99985426664352417,
        1
      ],
      "min": [
        -0.9996451735496521,
        -0.99959993362426758,
        -0.99996042251586914,
        1
      ],
      "type": "VEC4"
    },
    {
      "bufferView": 1,
      "componentType": 5126,
      "count": 15885,
      "max": [
        0.98780018091201782,
        0.99997353553771973
      ],
      "min": [
        9.0816756710410118e-05,
        4.1127204895019531e-05
      ],
      "type": "VEC2"
    },
    {
      "bufferView": 0,
      "componentType": 5125,
      "count": 64758,
      "max": [
        15884
      ],
      "min": [
        0
      ],
      "type": "SCALAR"
    }
  ],
  "asset": {
    "extras": {
      "author": "Mingxuan Xie (https://sketchfab.com/vrchitecture)",
      "license": "CC-BY-4.0 (http://creativecommons.org/licenses/by/4.0/)",
      "source": "https://sketchfab.com/3d-models/path-outfit-3-91327b2942d34f85b9545f6853976743",
      "title": "PATH Outfit 3"
    },
    "generator": "Sketchfab-4.78.0",
    "version": "2.0"
  },
  "bufferViews": [
    {
      "buffer": 0,
      "byteLength": 259032,
      "byteOffset": 0,
      "name": "floatBufferViews",
      "target": 34963
    },
    {
      "buffer": 0,
      "byteLength": 127080,
      "byteOffset": 259032,
      "byteStride": 8,
      "name": "floatBufferViews",
      "target": 34962
    },
    {
      "buffer": 0,
      "byteLength": 381240,
      "byteOffset": 386112,
      "byteStride": 12,
      "name": "floatBufferViews",
      "target": 34962
    },
    {
      "buffer": 0,
      "byteLength": 254160,
      "byteOffset": 767352,
      "byteStride": 16,
      "name": "floatBufferViews",
      "target": 34962
    }
  ],
  "buffers": [
    {
      "byteLength": 1021512,
      "uri": "scene.bin"
    }
  ],
  "images": [
    {
      "uri": "textures/material0_baseColor.png"
    }
  ],
  "materials": [
    {
      "doubleSided": true,
      "emissiveFactor": [
        0,
        0,
        0
      ],
      "name": "material0",
      "pbrMetallicRoughness": {
        "baseColorFactor": [
          1,
          1,
          1,
          1
        ],
        "baseColorTexture": {
          "index": 0,
          "texCoord": 0
        },
        "metallicFactor": 0,
        "roughnessFactor": 0.95770514949999996
      }
    }
  ],
  "meshes": [
    {
      "name": "Model_2_material0_0",
      "primitives": [
        {
          "attributes": {
            "NORMAL": 1,
            "POSITION": 0,
            "TANGENT": 2,
            "TEXCOORD_0": 3
          },
          "indices": 4,
          "material": 0,
          "mode": 4
        }
      ]
    }
  ],
  "nodes": [
    {
      "children": [
        1
      ],
      "name": "RootNode (gltf orientation matrix)",
      "rotation": [
        -0.70710678118654746,
        -0,
        -0,
        0.70710678118654757
      ]
    },
    {
      "children": [
        2
      ],
      "name": "RootNode (model correction matrix)"
    },
    {
      "children": [
        3
      ],
      "matrix": [
        1,
        0,
        0,
        0,
        0,
        0,
        1,
        0,
        0,
        -1,
        0,
        0,
        0,
        0,
        0,
        1
      ],
      "name": "PATH_outfit_3.fbx"
    },
    {
      "children": [
        4
      ],
      "name": "RootNode"
    },
    {
      "children": [
        5
      ],
      "matrix": [
        0.0046172860186534104,
        0.99998934025182296,
        -7.2488603185347916e-06,
        0,
        0.99997524314884445,
        -0.0046171824366894043,
        0.0053098696552718958,
        0,
        0.0053097795840879687,
        -3.1765867779738263e-05,
        -0.99998590251647967,
        0,
        0.011538253165781498,
        -0.013533507473766804,
        -0.00016882311319932342,
        1
      ],
      "name": "Model"
    },
    {
      "children": [
        6
      ],
      "matrix": [
        1,
        -2.531106499963262e-18,
        -5.0821976835258043e-21,
        0,
        2.531106499963262e-18,
        1,
        -8.6736173798840316e-19,
        0,
        5.0821976835258058e-21,
        8.6736173798840316e-19,
        1,
        0,
        3.4694469519536142e-18,
        -5.2041704279304213e-18,
        5.4210108624275222e-20,
        1
      ],
      "name": "Model_2"
    },
    {
      "mesh": 0,
      "name": "Model_2_material0_0"
    }
  ],
  "samplers": [
    {
      "magFilter": 9729,
      "minFilter": 9987,
      "wrapS": 10497,
      "wrapT": 10497
    }
  ],
  "scene": 0,
  "scenes": [
    {
      "name": "OSG_Scene",
      "nodes": [
        0
      ]
    }
  ],
  "textures": [
    {
      "sampler": 0,
      "source": 0
    }
  ]
}

