{
  "accessors": [
    {
      "bufferView": 2,
      "componentType": 5126,
      "count": 26087,
      "max": [
        2963.78515625,
        1101.003173828125,
        10103.9462890625
      ],
      "min": [
        -2733.544189453125,
        -1024.533935546875,
        22.415121078491211
      ],
      "type": "VEC3"
    },
    {
      "bufferView": 2,
      "byteOffset": 313044,
      "componentType": 5126,
      "count": 26087,
      "max": [
        0.99994546175003052,
        0.99995076656341553,
        0.99997806549072266
      ],
      "min": [
        -0.9999963641166687,
        -0.99999350309371948,
        -0.99997043609619141
      ],
      "type": "VEC3"
    },
    {
      "bufferView": 3,
      "componentType": 5126,
      "count": 26087,
      "max": [
        0.99999511241912842,
        0.97073280811309814,
        0.99999982118606567,
        1
      ],
      "min": [
        -0.99880647659301758,
        -0.99995917081832886,
        -0.99999940395355225,
        1
      ],
      "type": "VEC4"
    },
    {
      "bufferView": 1,
      "componentType": 5126,
      "count": 26087,
      "max": [
        0.99405378103256226,
        0.99405407905578613
      ],
      "min": [
        0.0059461891651153564,
        0.0059459209442138672
      ],
      "type": "VEC2"
    },
    {
      "bufferView": 0,
      "componentType": 5125,
      "count": 90000,
      "max": [
        26086
      ],
      "min": [
        0
      ],
      "type": "SCALAR"
    },
    {
      "bufferView": 2,
      "byteOffset": 626088,
      "componentType": 5126,
      "count": 1734,
      "max": [
        455.25030517578125,
        -234.2205810546875,
        9853.537109375
      ],
      "min": [
        -577.6024169921875,
        -1012.0834350585938,
        9119.0537109375
      ],
      "type": "VEC3"
    },
    {
      "bufferView": 2,
      "byteOffset": 646896,
      "componentType": 5126,
      "count": 1734,
      "max": [
        0.99719387292861938,
        0.99154543876647949,
        0.99587571620941162
      ],
      "min": [
        -0.99975258111953735,
        -0.99927264451980591,
        -0.99936723709106445
      ],
      "type": "VEC3"
    },
    {
      "bufferView": 3,
      "byteOffset": 417392,
      "componentType": 5126,
      "count": 1734,
      "max": [
        0.98547309637069702,
        0.99740129709243774,
        0.99998760223388672,
        1
      ],
      "min": [
        -0.93559777736663818,
        -0.99167466163635254,
        -0.96348381042480469,
        1
      ],
      "type": "VEC4"
    },
    {
      "bufferView": 1,
      "byteOffset": 208696,
      "componentType": 5126,
      "count": 1734,
      "max": [
        0.99252951145172119,
        0.99257373809814453
      ],
      "min": [
        0.0074705150909721851,
        0.0074262619018554688
      ],
      "type": "VEC2"
    },
    {
      "bufferView": 0,
      "byteOffset": 360000,
      "componentType": 5125,
      "count": 2940,
      "max": [
        1733
      ],
      "min": [
        0
      ],
      "type": "SCALAR"
    }
  ],
  "asset": {
    "extras": {
      "author": "Mingxuan Xie (https://sketchfab.com/vrchitecture)",
      "license": "CC-BY-4.0 (http://creativecommons.org/licenses/by/4.0/)",
      "source": "https://sketchfab.com/3d-models/player-character-4-e52be982736a449093926945c897ee11",
      "title": "Player Character 4"
    },
    "generator": "Sketchfab-4.78.0",
    "version": "2.0"
  },
  "bufferViews": [
    {
      "buffer": 0,
      "byteLength": 371760,
      "byteOffset": 0,
      "name": "floatBufferViews",
      "target": 34963
    },
    {
      "buffer": 0,
      "byteLength": 222568,
      "byteOffset": 371760,
      "byteStride": 8,
      "name": "floatBufferViews",
      "target": 34962
    },
    {
      "buffer": 0,
      "byteLength": 667704,
      "byteOffset": 594328,
      "byteStride": 12,
      "name": "floatBufferViews",
      "target": 34962
    },
    {
      "buffer": 0,
      "byteLength": 445136,
      "byteOffset": 1262032,
      "byteStride": 16,
      "name": "floatBufferViews",
      "target": 34962
    }
  ],
  "buffers": [
    {
      "byteLength": 1707168,
      "uri": "scene.bin"
    }
  ],
  "images": [
    {
      "uri": "textures/Material_59_baseColor.png"
    },
    {
      "uri": "textures/Material_61_baseColor.png"
    }
  ],
  "materials": [
    {
      "doubleSided": true,
      "emissiveFactor": [
        0,
        0,
        0
      ],
      "name": "Material_59",
      "pbrMetallicRoughness": {
        "baseColorFactor": [
          1,
          1,
          1,
          1
        ],
        "baseColorTexture": {
          "index": 0,
          "texCoord": 0
        },
        "metallicFactor": 0,
        "roughnessFactor": 0.59999999999999998
      }
    },
    {
      "doubleSided": true,
      "emissiveFactor": [
        0,
        0,
        0
      ],
      "name": "Material_61",
      "pbrMetallicRoughness": {
        "baseColorFactor": [
          1,
          1,
          1,
          1
        ],
        "baseColorTexture": {
          "index": 1,
          "texCoord": 0
        },
        "metallicFactor": 0,
        "roughnessFactor": 0.59999999999999998
      }
    }
  ],
  "meshes": [
    {
      "name": "node_id4_1_Material_59_0",
      "primitives": [
        {
          "attributes": {
            "NORMAL": 1,
            "POSITION": 0,
            "TANGENT": 2,
            "TEXCOORD_0": 3
          },
          "indices": 4,
          "material": 0,
          "mode": 4
        }
      ]
    },
    {
      "name": "node_id4_1_Material_61_0",
      "primitives": [
        {
          "attributes": {
            "NORMAL": 6,
            "POSITION": 5,
            "TANGENT": 7,
            "TEXCOORD_0": 8
          },
          "indices": 9,
          "material": 1,
          "mode": 4
        }
      ]
    }
  ],
  "nodes": [
    {
      "children": [
        1
      ],
      "name": "RootNode (gltf orientation matrix)",
      "rotation": [
        -0.70710678118654746,
        -0,
        -0,
        0.70710678118654757
      ]
    },
    {
      "children": [
        2
      ],
      "name": "RootNode (model correction matrix)"
    },
    {
      "children": [
        3
      ],
      "matrix": [
        1,
        0,
        0,
        0,
        0,
        0,
        1,
        0,
        0,
        -1,
        0,
        0,
        0,
        0,
        0,
        1
      ],
      "name": "Player Character 4.fbx"
    },
    {
      "children": [
        4
      ],
      "name": "RootNode"
    },
    {
      "children": [
        5,
        6
      ],
      "matrix": [
        -0.018410204172243712,
        0.00016315768148514242,
        -0.00011704975921273651,
        0,
        -0.0001161192947112734,
        0.00010529757683925878,
        0.018410631913885162,
        0,
        0.0001638211471835179,
        0.018410269552365625,
        -0.00010426225377436673,
        0,
        -0.00027672509895637631,
        -0.071820914745330811,
        0.2861790657043457,
        1
      ],
      "name": "node_id4_1"
    },
    {
      "mesh": 0,
      "name": "node_id4_1_Material_59_0"
    },
    {
      "mesh": 1,
      "name": "node_id4_1_Material_61_0"
    }
  ],
  "samplers": [
    {
      "magFilter": 9729,
      "minFilter": 9987,
      "wrapS": 10497,
      "wrapT": 10497
    }
  ],
  "scene": 0,
  "scenes": [
    {
      "name": "OSG_Scene",
      "nodes": [
        0
      ]
    }
  ],
  "textures": [
    {
      "sampler": 0,
      "source": 0
    },
    {
      "sampler": 0,
      "source": 1
    }
  ]
}

